<?xml version="1.0" encoding="utf-8"?>
<!-- Generator: Adobe Illustrator 16.0.0, SVG Export Plug-In . SVG Version: 6.00 Build 0)  -->
<!DOCTYPE svg PUBLIC "-//W3C//DTD SVG 1.1//EN" "http://www.w3.org/Graphics/SVG/1.1/DTD/svg11.dtd">
<svg version="1.1" xmlns="http://www.w3.org/2000/svg" xmlns:xlink="http://www.w3.org/1999/xlink" x="0px" y="0px" width="264px"
	 height="240.8px" viewBox="0 0 264 240.8" enable-background="new 0 0 264 240.8" xml:space="preserve">
<g id="Layer_6">
	<path fill="none" stroke="#000000" stroke-width="0.1" stroke-miterlimit="10" d="M24.819,120.195h212.599v72.662
		c0,4.292-3.51,7.805-7.799,7.805H32.618c-4.289,0-7.799-3.513-7.799-7.805V120.195z"/>
	<path fill="#5B933B" d="M237.418,120.195H24.819V52.559c0-4.292,3.511-7.802,7.802-7.802h196.994c4.291,0,7.803,3.511,7.803,7.802
		V120.195z"/>
	<g>
		<path fill="#FFFFFF" d="M184.146,70.668l0.531-0.653l2.166,1.768l0.861-1.054l0.547,0.446l-1.393,1.707L184.146,70.668z"/>
		<path fill="#FFFFFF" d="M186.46,68.04l1.678-1.448l0.455,0.526l-1.043,0.899l0.424,0.491l0.885-0.764l0.461,0.533l-0.887,0.764
			l0.486,0.562l1.08-0.932l0.461,0.533l-1.719,1.481L186.46,68.04z"/>
		<path fill="#FFFFFF" d="M189.374,65.718l1.914-1.116l0.352,0.601l-1.189,0.693l0.326,0.56l1.01-0.589l0.355,0.609l-1.012,0.589
			l0.375,0.642l1.234-0.719l0.354,0.609l-1.961,1.142L189.374,65.718z"/>
		<path fill="#FFFFFF" d="M193.063,65.631c-0.365-1.087,0.043-1.909,0.947-2.212c0.906-0.304,1.729,0.109,2.092,1.192
			c0.365,1.087-0.031,1.944-0.938,2.248C194.261,67.163,193.429,66.718,193.063,65.631z M195.292,64.884
			c-0.217-0.642-0.615-0.929-1.051-0.783c-0.438,0.146-0.578,0.615-0.363,1.256c0.217,0.646,0.621,0.962,1.059,0.815
			C195.372,66.026,195.509,65.53,195.292,64.884z"/>
		<path fill="#FFFFFF" d="M196.989,62.685l0.85-0.089l1.039,1.572l0.42,0.735l0.023-0.002c-0.084-0.364-0.201-0.857-0.246-1.272
			l-0.119-1.149l0.793-0.083l0.363,3.474l-0.85,0.089l-1.035-1.586l-0.42-0.726l-0.023,0.002c0.078,0.384,0.197,0.853,0.242,1.273
			l0.121,1.153l-0.795,0.083L196.989,62.685z"/>
		<path fill="#FFFFFF" d="M200.845,65.436l0.527-0.531c0.229,0.234,0.539,0.41,0.814,0.436c0.311,0.029,0.467-0.074,0.484-0.262
			c0.018-0.201-0.168-0.285-0.455-0.44l-0.428-0.229c-0.352-0.18-0.664-0.517-0.617-1.022c0.057-0.585,0.625-1.004,1.365-0.935
			c0.402,0.038,0.814,0.233,1.09,0.566l-0.467,0.485c-0.213-0.195-0.42-0.309-0.691-0.335c-0.258-0.024-0.426,0.064-0.443,0.251
			c-0.02,0.192,0.193,0.288,0.492,0.439l0.418,0.214c0.416,0.214,0.646,0.529,0.6,1.021c-0.055,0.581-0.59,1.045-1.434,0.966
			C201.646,66.018,201.175,65.803,200.845,65.436z"/>
		<path fill="#FFFFFF" d="M205.399,63.728l-0.91-0.254l0.188-0.671l2.637,0.737l-0.188,0.67l-0.914-0.256l-0.756,2.701l-0.811-0.227
			L205.399,63.728z"/>
		<path fill="#FFFFFF" d="M207.478,65.431c0.521-1.024,1.395-1.308,2.246-0.875s1.135,1.312,0.615,2.332
			c-0.521,1.024-1.412,1.342-2.264,0.908S206.956,66.455,207.478,65.431z M209.575,66.499c0.307-0.604,0.232-1.091-0.178-1.301
			c-0.412-0.209-0.846,0.019-1.152,0.624c-0.311,0.608-0.252,1.119,0.158,1.328C208.815,67.359,209.265,67.107,209.575,66.499z"/>
		<path fill="#FFFFFF" d="M211.575,70.07l0.275-1.361l-0.312-0.254l-0.775,0.956l-0.654-0.53l2.203-2.713l0.996,0.808
			c0.58,0.471,0.9,1.058,0.367,1.715c-0.322,0.397-0.715,0.501-1.102,0.405l-0.27,1.567L211.575,70.07z M211.954,67.94l0.293,0.237
			c0.309,0.251,0.584,0.25,0.791-0.005c0.207-0.255,0.111-0.473-0.199-0.724l-0.293-0.237L211.954,67.94z"/>
		<path fill="#FFFFFF" d="M215.368,68.861l1.426,1.7l-0.533,0.447l-0.885-1.055l-0.498,0.417l0.752,0.897l-0.539,0.453l-0.752-0.896
			l-0.57,0.477l0.918,1.095l-0.539,0.453l-1.459-1.739L215.368,68.861z"/>
	</g>
	<g>
		<path fill-rule="evenodd" clip-rule="evenodd" fill="#FFFFFF" d="M45.232,58.141L34.888,78.404c0,0,12.158,2.772,18.663-4.906
			c0,0-12.265,2.453-12.157,1.173l8.212-16.317L45.232,58.141z"/>
		<path fill-rule="evenodd" clip-rule="evenodd" fill="#FFFFFF" d="M57.36,71.988c2.447,0.989,7.517,2.913,13.216,2.28
			c0,0,15.626-3.249,26.769-0.091c-13.796-7.168-32.831-0.105-39.984-2.221V71.988z"/>
		<path fill-rule="evenodd" clip-rule="evenodd" fill="#FFFFFF" d="M56.427,61.945c0.604-0.148,1.174-0.328,1.692-0.54l-1.078-1.174
			c-1.048,0.476-2.677,0.888-4.199,1.132c0.169,0.317,0.381,0.846,0.444,1.195c0.508-0.074,1.047-0.159,1.586-0.265v1.026h-1.883
			v1.417h1.608c-0.454,0.983-1.143,2.052-1.851,2.739c0.242,0.413,0.623,1.068,0.771,1.523c0.497-0.528,0.952-1.248,1.354-2.041
			v3.279h1.555v-3.396c0.329,0.36,0.646,0.73,0.868,1.026l0.867-1.333c-0.255-0.211-1.195-0.994-1.735-1.385v-0.413h1.756V63.32
			h-1.756V61.945L56.427,61.945z M60.204,61.5H58.67v5.997h1.534V61.5L60.204,61.5z M60.943,60.4v8.007
			c0,0.201-0.084,0.265-0.286,0.265c-0.232,0-0.93,0-1.597-0.032c0.223,0.433,0.466,1.153,0.529,1.597
			c0.973,0,1.734-0.053,2.231-0.296c0.486-0.254,0.646-0.667,0.646-1.523V60.4H60.943z"/>
		<path fill-rule="evenodd" clip-rule="evenodd" fill="#FFFFFF" d="M65.924,62.717h5.943v1.079h1.65V61.3h-3.723
			c-0.159-0.359-0.393-0.804-0.572-1.153l-1.618,0.381c0.106,0.232,0.232,0.507,0.339,0.772h-3.585v2.496h1.565V62.717
			L65.924,62.717z M70.059,65.742c-0.222,0.476-0.519,0.878-0.878,1.227c-0.476-0.18-0.962-0.359-1.428-0.518
			c0.148-0.222,0.285-0.466,0.434-0.709H70.059L70.059,65.742z M73.719,69.032c-0.751-0.456-1.83-0.963-2.994-1.449
			c0.455-0.519,0.847-1.121,1.153-1.841h1.788v-1.449h-4.707c0.18-0.37,0.349-0.751,0.497-1.121l-1.745-0.349
			c-0.169,0.476-0.392,0.973-0.646,1.47h-2.877v1.449h2.062c-0.307,0.497-0.613,0.952-0.91,1.333l-0.021,0.021
			c0.73,0.243,1.544,0.55,2.348,0.878c-0.962,0.434-2.136,0.698-3.512,0.857c0.286,0.349,0.73,1.047,0.89,1.428
			c1.724-0.307,3.194-0.772,4.367-1.544c1.228,0.561,2.339,1.132,3.058,1.619L73.719,69.032z"/>
		<path fill-rule="evenodd" clip-rule="evenodd" fill="#FFFFFF" d="M77.218,65.911h1.132v0.508h-1.132V65.911L77.218,65.911z
			 M78.35,62.685v0.444h-1.132v-0.444H78.35L78.35,62.685z M77.218,64.282h1.132v0.476h-1.132V64.282L77.218,64.282z M80.338,67.751
			v-1.333h-0.582v-3.734h0.561v-1.333h-0.561v-1.036H78.35v1.036h-1.132v-1.036h-1.375v1.036H75.07v1.333h0.772v3.734h-0.89v1.333
			h1.228c-0.285,0.582-0.783,1.195-1.312,1.586c0.349,0.201,0.941,0.635,1.217,0.889c0.549-0.487,1.175-1.301,1.545-2.062
			l-1.419-0.413H80.338L80.338,67.751z M82.114,62.304c1.005-0.286,2.052-0.656,2.919-1.089l-1.227-1.1
			c-0.761,0.476-1.967,0.962-3.099,1.269v3.956c0,1.311-0.116,2.57-0.847,3.702c-0.212-0.381-0.582-0.889-0.878-1.269l-1.227,0.55
			c0.317,0.455,0.709,1.079,0.866,1.47l1.08-0.519c-0.063,0.084-0.127,0.169-0.2,0.254c0.349,0.254,0.824,0.666,1.078,0.994
			c1.301-1.438,1.533-3.205,1.533-5.172v-0.275h0.646v5.162h1.449v-5.162h0.804v-1.417h-2.898V62.304z"/>
		<path fill-rule="evenodd" clip-rule="evenodd" fill="#FFFFFF" d="M88.597,62.653v-0.391c0.824-0.032,1.671-0.085,2.506-0.148
			l-0.021,0.54H88.597L88.597,62.653z M93.705,66.07H90.5v-0.329h3.205V66.07L93.705,66.07z M90.5,68.725v-0.338h3.205v0.338H90.5
			L90.5,68.725z M90.5,67.064h3.205v0.328H90.5V67.064L90.5,67.064z M96.011,63.986v-1.333h-3.269
			c0.031-0.232,0.053-0.465,0.074-0.688c1.036-0.116,2.03-0.254,2.93-0.434l-1.153-1.227c-1.882,0.381-4.896,0.613-7.604,0.687v3.66
			c0,1.427-0.053,3.311-0.899,4.548c0.339,0.19,1.016,0.793,1.27,1.111c1.047-1.45,1.238-3.978,1.238-5.659v-0.667h2.4
			c-0.021,0.201-0.042,0.391-0.063,0.571h-1.957v5.69H90.5v-0.338h3.205v0.338h1.596v-5.69h-2.812
			c0.031-0.18,0.063-0.371,0.095-0.571H96.011z"/>
		<g>
			<path fill-rule="evenodd" clip-rule="evenodd" fill="#FFFFFF" d="M54.114,77.589h-0.183c-0.104,0-0.198,0.06-0.242,0.153
				c-0.171,0.362-0.368,0.589-0.585,0.675c-0.013,0.005-0.025,0.011-0.037,0.018c-0.086,0.05-0.334,0.135-1.018,0.135
				c-0.076,0-0.156-0.001-0.24-0.003c-0.008,0-0.015,0-0.022,0c-0.081,0.005-0.156,0.007-0.223,0.007
				c-0.147,0-0.235-0.012-0.285-0.023v-3.398c0-0.008,0-0.016-0.001-0.024c-0.011-0.122,0.006-0.209,0.05-0.257
				c0.061-0.066,0.208-0.099,0.404-0.093c0.073,0.004,0.144-0.024,0.195-0.074c0.053-0.051,0.083-0.12,0.083-0.193V74.4
				c0-0.148-0.121-0.268-0.269-0.268h-2.19c-0.147,0-0.268,0.12-0.268,0.268v0.112c0,0.073,0.029,0.142,0.082,0.193
				s0.122,0.076,0.195,0.074c0.179-0.006,0.31,0.022,0.36,0.08c0.053,0.06,0.044,0.187,0.034,0.258
				c-0.001,0.012-0.003,0.024-0.003,0.036v3.179c0,0.008,0.001,0.016,0.002,0.023c0.012,0.137-0.007,0.238-0.051,0.286
				c-0.052,0.057-0.164,0.068-0.25,0.068c-0.025,0-0.053-0.001-0.082-0.003c-0.074-0.006-0.147,0.02-0.202,0.071
				c-0.055,0.05-0.086,0.121-0.086,0.196v0.139c0,0.148,0.12,0.268,0.268,0.268h4.197c0.119,0,0.225-0.079,0.258-0.193l0.364-1.255
				c0.023-0.082,0.008-0.168-0.043-0.235S54.198,77.589,54.114,77.589z"/>
			<path fill-rule="evenodd" clip-rule="evenodd" fill="#FFFFFF" d="M63.021,77.744L62.87,77.69
				c-0.123-0.044-0.259,0.006-0.323,0.119c-0.235,0.414-0.547,0.616-0.951,0.616c-0.346-0.008-0.801-0.132-0.949-1.025h2.133
				c0.075,0,0.149-0.033,0.2-0.09c0.051-0.058,0.074-0.133,0.065-0.209c-0.118-0.99-0.682-1.525-1.629-1.547
				c-0.009,0-0.02,0-0.03,0.001c-1.168,0.105-1.81,0.801-1.854,2.014c0,0.006,0,0.013,0,0.021c0.059,1.476,0.969,1.803,1.722,1.817
				c0.002,0,0.004,0,0.005,0c0.003,0,0.005,0,0.007,0c0.853-0.02,1.495-0.455,1.906-1.292c0.033-0.068,0.037-0.148,0.008-0.219
				C63.15,77.825,63.094,77.771,63.021,77.744z M62.456,76.865h-0.204c-0.037-0.257-0.105-0.453-0.192-0.602
				C62.253,76.389,62.382,76.588,62.456,76.865z M61.186,76.339c0.011,0,0.021,0,0.031,0.001c0.008,0,0.015,0,0.021,0
				c0.009,0,0.019-0.001,0.027-0.001c0.088,0,0.271,0,0.384,0.303h-0.918C60.851,76.38,61.03,76.339,61.186,76.339z"/>
			<path fill-rule="evenodd" clip-rule="evenodd" fill="#FFFFFF" d="M58.599,77.744l-0.152-0.054
				c-0.122-0.044-0.259,0.006-0.323,0.119c-0.234,0.414-0.546,0.616-0.952,0.616c-0.345-0.008-0.799-0.132-0.947-1.025h2.132
				c0.077,0,0.149-0.033,0.2-0.09c0.051-0.058,0.075-0.133,0.065-0.209c-0.118-0.99-0.682-1.525-1.628-1.547
				c-0.01,0-0.02,0-0.03,0.001c-1.169,0.105-1.81,0.801-1.855,2.014c0,0.006,0,0.013,0,0.021c0.059,1.476,0.97,1.803,1.722,1.817
				c0.003,0,0.005,0,0.005,0c0.003,0,0.005,0,0.007,0c0.854-0.02,1.494-0.455,1.906-1.292c0.035-0.068,0.037-0.148,0.009-0.219
				C58.727,77.825,58.67,77.77,58.599,77.744z M58.034,76.865h-0.205c-0.038-0.257-0.106-0.453-0.192-0.602
				C57.829,76.389,57.959,76.588,58.034,76.865z M56.763,76.339c0.01,0,0.021,0,0.03,0.001c0.008,0,0.015,0,0.022,0
				c0.009,0,0.019-0.001,0.026-0.001c0.089,0,0.271,0,0.385,0.303h-0.919C56.427,76.38,56.606,76.339,56.763,76.339z"/>
			<path fill-rule="evenodd" clip-rule="evenodd" fill="#FFFFFF" d="M65.97,75.555c-0.01-0.001-0.019-0.001-0.028,0
				c-1.188,0.062-1.864,0.727-1.957,1.92c-0.001,0.014-0.001,0.028,0,0.042c0.093,1.175,0.77,1.829,1.957,1.891
				c0.005,0,0.01,0,0.015,0c0.003,0,0.006,0,0.009,0c1.165-0.042,1.854-0.692,1.99-1.881c0.002-0.016,0.002-0.031,0.001-0.046
				C67.888,76.283,67.2,75.617,65.97,75.555z M66.074,78.705c-0.209-0.012-0.775-0.081-0.854-1.571
				c0.044-0.681,0.379-0.815,0.677-0.849c0.339,0.034,0.778,0.229,0.824,1.41C66.72,78.542,66.379,78.683,66.074,78.705z"/>
			<path fill-rule="evenodd" clip-rule="evenodd" fill="#FFFFFF" d="M90.323,75.555c-0.229-0.015-0.461,0.071-0.695,0.258
				c-0.008-0.059-0.036-0.115-0.08-0.157l-0.029-0.028c-0.074-0.07-0.182-0.093-0.276-0.058c-0.419,0.152-0.792,0.279-1.143,0.385
				c-0.113,0.034-0.19,0.138-0.19,0.256v0.111c0,0.148,0.12,0.268,0.269,0.268h0.091c0.024,0,0.05-0.003,0.075-0.01
				c0.04-0.012,0.061-0.016,0.071-0.017c0.005,0.03,0.011,0.078,0.011,0.149v1.785c0,0.011,0.001,0.022,0.002,0.033
				c0.01,0.069,0.003,0.121-0.016,0.142c-0.026,0.029-0.109,0.06-0.266,0.06c-0.148,0-0.268,0.12-0.268,0.268v0.112
				c0,0.148,0.119,0.268,0.268,0.268h1.886c0.147,0,0.268-0.12,0.268-0.268V79c0-0.075-0.031-0.146-0.085-0.196
				c-0.056-0.051-0.129-0.076-0.203-0.07c-0.168,0.013-0.295-0.009-0.342-0.058c-0.04-0.043-0.042-0.138-0.039-0.191
				c0-0.005,0-0.01,0-0.014v-1.579c0.051-0.165,0.137-0.275,0.266-0.341c0.015,0.008,0.034,0.02,0.059,0.038
				c0.148,0.132,0.307,0.198,0.472,0.198c0.009,0,0.018,0,0.026-0.001c0.307-0.03,0.511-0.233,0.545-0.543
				c0.002-0.018,0.002-0.035,0-0.053C90.967,75.814,90.721,75.583,90.323,75.555z"/>
			<path fill-rule="evenodd" clip-rule="evenodd" fill="#FFFFFF" d="M85.166,75.555c-0.009-0.001-0.019-0.001-0.027,0
				c-1.188,0.062-1.864,0.727-1.957,1.92c0,0.014,0,0.028,0,0.042c0.093,1.175,0.769,1.829,1.957,1.891c0.004,0,0.009,0,0.014,0
				c0.003,0,0.007,0,0.01,0c1.164-0.042,1.853-0.692,1.989-1.881c0.002-0.016,0.003-0.031,0.002-0.046
				C87.084,76.283,86.397,75.617,85.166,75.555z M85.272,78.705c-0.211-0.012-0.776-0.081-0.856-1.571
				c0.045-0.681,0.38-0.815,0.677-0.849c0.339,0.034,0.78,0.229,0.825,1.41C85.916,78.542,85.575,78.683,85.272,78.705z"/>
			<path fill-rule="evenodd" clip-rule="evenodd" fill="#FFFFFF" d="M72.689,78.732c-0.096,0-0.147-0.019-0.164-0.037
				c-0.016-0.016-0.029-0.065-0.024-0.152c0.001-0.005,0.001-0.011,0.001-0.017v-1.618c0-0.003,0-0.005,0-0.008
				c-0.034-1.108-0.742-1.319-1.165-1.346c-0.277-0.016-0.578,0.083-0.903,0.299V75.85c0-0.104-0.061-0.199-0.154-0.242
				l-0.061-0.029c-0.071-0.033-0.153-0.034-0.227,0c-0.146,0.068-0.379,0.147-0.685,0.235c-0.115,0.031-0.222,0.058-0.328,0.083
				c-0.12,0.028-0.206,0.136-0.206,0.26v0.111c0,0.148,0.12,0.268,0.269,0.268h0.061c0.025,0,0.05-0.004,0.075-0.011
				c0.024-0.007,0.048-0.012,0.069-0.015c0.007,0.037,0.013,0.093,0.013,0.177v1.784c0,0.01,0.001,0.019,0.002,0.029
				c0.015,0.13-0.007,0.192-0.021,0.208c-0.011,0.012-0.05,0.026-0.121,0.026c-0.013,0-0.022,0-0.034,0
				c-0.073-0.005-0.146,0.021-0.199,0.072S68.804,78.926,68.804,79v0.112c0,0.148,0.119,0.268,0.268,0.268h1.643
				c0.07,0,0.135-0.027,0.183-0.072c0.047,0.045,0.111,0.072,0.182,0.072h1.611c0.148,0,0.269-0.12,0.269-0.268V79
				C72.958,78.852,72.838,78.732,72.689,78.732z M71.25,78.701c-0.026,0.027-0.083,0.033-0.127,0.033c-0.01,0-0.02,0-0.03,0
				c-0.072-0.005-0.143,0.021-0.196,0.071c-0.045-0.042-0.104-0.068-0.17-0.072c-0.187-0.009-0.25-0.046-0.264-0.057
				c0-0.003,0-0.008,0-0.013c0.001-0.008,0.001-0.016,0.001-0.024v-1.887c0.288-0.244,0.438-0.272,0.492-0.272
				c0.18,0,0.341,0.033,0.341,0.43v1.506c0,0.005,0.001,0.009,0.001,0.014C71.308,78.624,71.264,78.687,71.25,78.701z"/>
			<path fill-rule="evenodd" clip-rule="evenodd" fill="#FFFFFF" d="M95.252,77.896c-0.028-0.07-0.086-0.125-0.157-0.151
				l-0.151-0.054c-0.124-0.044-0.26,0.006-0.324,0.119c-0.235,0.414-0.546,0.616-0.951,0.616c-0.345-0.008-0.8-0.132-0.947-1.025
				h2.131c0.077,0,0.149-0.033,0.201-0.09c0.05-0.058,0.074-0.133,0.064-0.209c-0.118-0.99-0.681-1.525-1.628-1.547
				c-0.011,0-0.02,0-0.03,0.001c-1.169,0.105-1.811,0.801-1.855,2.014c0,0.006,0,0.013,0,0.021c0.059,1.476,0.969,1.803,1.723,1.817
				c0,0,0.003,0,0.005,0s0.004,0,0.006,0c0.853-0.02,1.494-0.455,1.907-1.292C95.277,78.046,95.28,77.966,95.252,77.896z
				 M94.529,76.865h-0.205c-0.037-0.257-0.104-0.453-0.191-0.602C94.325,76.389,94.455,76.588,94.529,76.865z M93.259,76.339
				c0.011,0,0.02,0,0.031,0.001c0.007,0,0.014,0,0.021,0c0.008,0,0.018-0.001,0.026-0.001c0.088,0,0.271,0,0.385,0.303h-0.919
				C92.923,76.38,93.104,76.339,93.259,76.339z"/>
			<path fill-rule="evenodd" clip-rule="evenodd" fill="#FFFFFF" d="M82.341,78.358c-0.057-0.053-0.133-0.078-0.209-0.071
				s-0.146,0.047-0.189,0.109c-0.073,0.099-0.153,0.141-0.271,0.141c-0.057,0-0.07-0.014-0.074-0.019
				c-0.012-0.012-0.067-0.084-0.055-0.341c0.001-0.004,0.001-0.009,0.001-0.013v-1.768h0.521c0.148,0,0.268-0.12,0.268-0.268v-0.223
				c0-0.147-0.119-0.267-0.268-0.267h-0.521v-0.569c0-0.278-0.188-0.352-0.299-0.352c-0.066,0-0.131,0.025-0.181,0.07
				c-0.075,0.069-0.158,0.167-0.247,0.289c-0.174,0.229-0.325,0.404-0.452,0.52c-0.043,0.04-0.105,0.082-0.185,0.126
				c-0.178,0.084-0.269,0.202-0.269,0.35c0,0.044,0.013,0.088,0.033,0.127c0.023,0.043,0.034,0.062,0.034,0.062
				c0.049,0.083,0.138,0.133,0.231,0.133h0.158v1.879c0,0.352,0.071,0.617,0.22,0.811c0.111,0.147,0.324,0.322,0.705,0.322
				c0.018,0,0.035,0,0.055-0.001c0.469-0.022,0.846-0.229,1.118-0.613c0.078-0.11,0.062-0.26-0.036-0.351L82.341,78.358z"/>
			<path fill-rule="evenodd" clip-rule="evenodd" fill="#FFFFFF" d="M77.742,76.179c-0.239-0.099-0.659-0.211-1.283-0.341
				c-0.771-0.159-0.957-0.276-0.996-0.308c-0.082-0.069-0.118-0.145-0.118-0.247c0-0.078,0.02-0.197,0.196-0.327
				c0.106-0.079,0.336-0.173,0.817-0.173c0.367,0,0.641,0.065,0.812,0.194c0.159,0.119,0.251,0.298,0.279,0.547
				c0.017,0.143,0.143,0.246,0.284,0.236l0.71-0.05c0.144-0.01,0.255-0.134,0.248-0.279c-0.015-0.352-0.125-0.671-0.324-0.949
				c-0.199-0.28-0.485-0.493-0.848-0.633c-0.345-0.133-0.744-0.201-1.19-0.201c-0.406,0-0.782,0.065-1.116,0.192
				c-0.356,0.135-0.634,0.339-0.823,0.606c-0.191,0.27-0.29,0.565-0.29,0.879c0,0.291,0.082,0.556,0.244,0.788
				c0.155,0.228,0.39,0.419,0.695,0.566c0.226,0.109,0.596,0.221,1.136,0.339c0.618,0.136,0.864,0.206,0.962,0.24
				c0.233,0.082,0.339,0.166,0.386,0.221c0.061,0.072,0.089,0.15,0.089,0.246c0,0.096-0.033,0.186-0.101,0.273
				c-0.074,0.093-0.195,0.171-0.361,0.23c-0.183,0.066-0.404,0.099-0.653,0.099c-0.28,0-0.535-0.044-0.755-0.132
				c-0.206-0.083-0.355-0.188-0.445-0.31c-0.093-0.127-0.154-0.299-0.18-0.508c-0.019-0.143-0.146-0.246-0.287-0.234l-0.694,0.058
				c-0.141,0.011-0.249,0.132-0.245,0.275c0.012,0.395,0.133,0.753,0.356,1.064c0.222,0.312,0.532,0.548,0.919,0.701
				c0.372,0.146,0.83,0.221,1.364,0.221c0.432,0,0.827-0.074,1.177-0.221c0.362-0.152,0.646-0.372,0.845-0.653
				c0.202-0.285,0.304-0.595,0.304-0.922c0-0.331-0.095-0.628-0.281-0.882C78.391,76.54,78.112,76.335,77.742,76.179z"/>
		</g>
		<g>
			<path fill-rule="evenodd" clip-rule="evenodd" fill="#FFFFFF" d="M99.4,59.229h0.038c0.287-0.01,0.432,0.108,0.432,0.354
				c0,0.267-0.145,0.4-0.432,0.4H99.4v0.478h0.176c0.155,0,0.242,0.123,0.263,0.369c0.011,0.267,0.046,0.523,0.107,0.771h0.662
				c-0.071-0.113-0.123-0.339-0.154-0.678c0-0.021-0.005-0.051-0.015-0.093c-0.021-0.411-0.19-0.621-0.508-0.631v-0.015
				c0.38-0.093,0.574-0.323,0.585-0.693c-0.011-0.482-0.339-0.729-0.985-0.739H99.4V59.229z M98.931,59.229h0.47v-0.478h-1.086
				v2.849h0.616v-1.14h0.47v-0.478h-0.47V59.229z"/>
			<path fill-rule="evenodd" clip-rule="evenodd" fill="#FFFFFF" d="M99.347,57.53c1.456,0,2.646,1.188,2.646,2.646
				s-1.189,2.646-2.646,2.646v-0.598c1.128,0,2.048-0.92,2.048-2.049c0-1.128-0.92-2.048-2.048-2.048V57.53z M99.347,62.823
				c-1.457,0-2.646-1.189-2.646-2.646s1.189-2.646,2.646-2.646v0.598c-1.129,0-2.049,0.92-2.049,2.048
				c0,1.128,0.92,2.049,2.049,2.049V62.823z"/>
		</g>
		<path fill-rule="evenodd" clip-rule="evenodd" fill="#FBFBFB" d="M93.255,77.132v-0.224h0.806
			c-0.081-0.576-0.335-0.854-0.76-0.836c-0.016-0.001-0.031-0.001-0.046-0.001v-0.22c0.072-0.013,0.149-0.023,0.228-0.03
			c0.812,0.019,1.267,0.455,1.369,1.311H93.255z"/>
		<path fill-rule="evenodd" clip-rule="evenodd" fill="#FBFBFB" d="M61.183,77.132v-0.224h0.805
			c-0.08-0.576-0.334-0.854-0.761-0.836c-0.015-0.001-0.029-0.001-0.044-0.001v-0.22c0.072-0.013,0.148-0.023,0.228-0.03
			c0.811,0.019,1.267,0.455,1.369,1.311H61.183z"/>
		<path fill-rule="evenodd" clip-rule="evenodd" fill="#FBFBFB" d="M56.759,77.132v-0.224h0.806
			c-0.081-0.576-0.335-0.854-0.761-0.836c-0.016-0.001-0.03-0.001-0.045-0.001v-0.22c0.073-0.013,0.149-0.023,0.228-0.03
			c0.812,0.019,1.267,0.455,1.369,1.311H56.759z"/>
	</g>
	<path fill="#FFFFFF" d="M200.507,105.649c-12.672,0-22.941-10.271-22.941-22.942c0-12.671,10.27-22.942,22.941-22.942
		c12.67,0,22.939,10.271,22.939,22.942C223.446,95.378,213.177,105.649,200.507,105.649 M225.009,87.583
		c0.324-1.637,2.406-3.143,2.406-4.875c0-1.733-2.082-3.239-2.406-4.875c-0.334-1.688,1.008-3.873,0.363-5.425
		c-0.654-1.58-3.154-2.175-4.094-3.578c-0.947-1.415-0.547-3.95-1.746-5.149c-1.199-1.2-3.734-0.798-5.148-1.746
		c-1.404-0.939-1.998-3.439-3.578-4.093c-1.551-0.644-3.736,0.696-5.424,0.362c-1.639-0.324-3.145-2.405-4.875-2.405
		c-1.732,0-3.238,2.081-4.877,2.405c-1.688,0.334-3.871-1.006-5.424-0.362c-1.58,0.654-2.176,3.154-3.578,4.093
		c-1.414,0.947-3.949,0.546-5.148,1.746c-1.199,1.198-0.799,3.734-1.746,5.149c-0.939,1.403-3.439,1.998-4.094,3.577
		c-0.645,1.553,0.697,3.738,0.363,5.425c-0.324,1.637-2.406,3.143-2.406,4.876c0,1.732,2.082,3.237,2.406,4.875
		c0.334,1.687-1.008,3.872-0.363,5.424c0.654,1.58,3.154,2.174,4.094,3.578c0.947,1.415,0.547,3.95,1.746,5.149
		c1.199,1.2,3.734,0.798,5.148,1.745c1.402,0.94,1.998,3.438,3.578,4.095c1.553,0.644,3.736-0.696,5.424-0.363
		c1.639,0.324,3.145,2.406,4.877,2.406c1.73,0,3.236-2.082,4.875-2.406c1.688-0.333,3.871,1.007,5.424,0.363
		c1.58-0.656,2.174-3.154,3.578-4.095c1.414-0.946,3.949-0.545,5.148-1.744c1.199-1.2,0.799-3.735,1.746-5.15
		c0.939-1.403,3.439-1.998,4.094-3.578C226.017,91.455,224.675,89.27,225.009,87.583"/>
	<path fill="#FFFFFF" d="M212.505,75.352l-14.176,14.087l-6.205-6.204l2.213-2.212l4,4l12.23-12.154
		c-2.555-2.612-6.119-4.234-10.062-4.234c-7.771,0-14.072,6.3-14.072,14.072c0,7.772,6.301,14.073,14.072,14.073
		s14.074-6.301,14.074-14.073C214.579,80.011,213.821,77.492,212.505,75.352"/>
	<polygon fill="#FFFFFF" points="181.13,83.759 182.345,81.655 183.56,83.759 	"/>
	<path fill="#FFFFFF" d="M187.647,97.166l-0.541,0.32l-0.645-0.598l2.818-1.604l0.859,0.796l-1.355,2.957l-0.695-0.643l0.27-0.569
		L187.647,97.166z M188.7,97.223c0.225-0.453,0.428-0.852,0.584-1.118l-0.01-0.009c-0.279,0.195-0.666,0.435-1.059,0.679
		L188.7,97.223z"/>
	<path fill="#FFFFFF" d="M191.528,97.19l1.24,0.715c0.605,0.351,0.814,0.922,0.514,1.443c-0.348,0.602-0.969,0.612-1.533,0.286
		l-0.451-0.26l-0.543,0.941l-0.773-0.447L191.528,97.19z M191.616,98.822l0.324,0.187c0.221,0.127,0.43,0.124,0.559-0.098
		c0.131-0.229,0.023-0.411-0.193-0.536l-0.322-0.186L191.616,98.822z"/>
	<path fill="#FFFFFF" d="M194.597,98.831l1.363,0.433c0.668,0.211,0.994,0.725,0.812,1.298c-0.209,0.663-0.814,0.805-1.436,0.609
		l-0.496-0.158l-0.328,1.035l-0.852-0.27L194.597,98.831z M195.034,100.406l0.355,0.112c0.242,0.077,0.447,0.029,0.523-0.215
		c0.08-0.252-0.064-0.406-0.303-0.482l-0.355-0.112L195.034,100.406z"/>
	<path fill="#FFFFFF" d="M198.646,101.773l-0.105,1.162l-0.877-0.08l0.279-3.078l1.523,0.138c0.729,0.066,1.041,0.486,1,0.951
		c-0.039,0.424-0.309,0.62-0.527,0.686c0.188,0.085,0.373,0.309,0.326,0.832l-0.012,0.129c-0.018,0.192-0.031,0.439-0.012,0.576
		l-0.857-0.078c-0.037-0.139-0.029-0.362-0.002-0.676l0.006-0.08c0.025-0.269-0.027-0.416-0.426-0.453L198.646,101.773z
		 M198.702,101.144l0.42,0.038c0.299,0.027,0.418-0.088,0.436-0.294c0.02-0.205-0.1-0.338-0.377-0.363l-0.42-0.038L198.702,101.144z
		"/>
	<path fill="#FFFFFF" d="M204.665,101.091c0.125,0.865-0.289,1.665-1.336,1.816c-1.031,0.15-1.633-0.496-1.758-1.362
		c-0.127-0.878,0.314-1.668,1.34-1.817C203.874,99.588,204.532,100.177,204.665,101.091 M202.493,101.397
		c0.08,0.561,0.324,0.924,0.768,0.858c0.467-0.067,0.562-0.503,0.486-1.022c-0.082-0.559-0.303-0.921-0.768-0.854
		C202.544,100.443,202.409,100.83,202.493,101.397"/>
	<path fill="#FFFFFF" d="M207.081,101.915l-2.119-2.485l0.896-0.355l0.842,1.095c0.266,0.34,0.434,0.582,0.627,0.877l0.012-0.005
		c-0.064-0.321-0.094-0.618-0.129-1.063l-0.129-1.386l0.865-0.342l0.129,3.273L207.081,101.915z"/>
	<polygon fill="#FFFFFF" points="211.513,98.111 210.343,98.895 210.665,99.376 211.974,98.5 212.263,99.116 210.315,100.419 
		208.597,97.85 210.538,96.55 210.913,97.109 209.694,97.925 209.972,98.339 211.142,97.556 	"/>
	<path fill="#FFFFFF" d="M211.288,95.936l0.914-0.966c0.674-0.715,1.52-0.701,2.166-0.091c0.648,0.613,0.77,1.486,0.072,2.224
		l-0.902,0.956L211.288,95.936z M213.685,96.949l0.24-0.254c0.336-0.356,0.223-0.741-0.199-1.138
		c-0.371-0.351-0.752-0.451-1.09-0.092l-0.248,0.26L213.685,96.949z"/>
	<polygon fill="#FFFFFF" points="217.263,83.759 218.478,81.655 219.692,83.759 	"/>
</g>
<g id="Layer_2">
	<g>
		<path fill="#C0C0C0" d="M41.914,150.284h-1.646v-6.205c-0.602,0.562-1.311,0.979-2.127,1.248v-1.494
			c0.43-0.141,0.896-0.407,1.4-0.8s0.85-0.851,1.037-1.374h1.336V150.284z"/>
		<path fill="#C0C0C0" d="M48.588,150.284h-1.646v-6.205c-0.602,0.562-1.311,0.979-2.127,1.248v-1.494
			c0.43-0.141,0.896-0.407,1.4-0.8s0.85-0.851,1.037-1.374h1.336V150.284z"/>
		<path fill="#C0C0C0" d="M56.609,148.754v1.529h-5.771c0.062-0.578,0.25-1.126,0.562-1.644s0.93-1.204,1.852-2.06
			c0.742-0.691,1.197-1.16,1.365-1.406c0.227-0.34,0.34-0.676,0.34-1.008c0-0.367-0.099-0.649-0.296-0.847s-0.47-0.296-0.817-0.296
			c-0.344,0-0.617,0.104-0.82,0.311s-0.32,0.551-0.352,1.031l-1.641-0.164c0.098-0.906,0.404-1.557,0.92-1.951
			s1.16-0.592,1.934-0.592c0.848,0,1.514,0.229,1.998,0.686s0.727,1.025,0.727,1.705c0,0.387-0.069,0.755-0.208,1.104
			s-0.358,0.716-0.659,1.099c-0.199,0.254-0.559,0.619-1.078,1.096s-0.849,0.793-0.987,0.949s-0.251,0.309-0.337,0.457H56.609z"/>
		<path fill="#C0C0C0" d="M60.506,141.659c0.832,0,1.482,0.297,1.951,0.891c0.559,0.703,0.838,1.869,0.838,3.498
			c0,1.625-0.281,2.793-0.844,3.504c-0.465,0.586-1.113,0.879-1.945,0.879c-0.836,0-1.51-0.321-2.021-0.964
			s-0.768-1.788-0.768-3.437c0-1.617,0.281-2.781,0.844-3.492C59.025,141.952,59.674,141.659,60.506,141.659z M60.506,143.024
			c-0.199,0-0.377,0.063-0.533,0.19s-0.277,0.354-0.363,0.683c-0.113,0.426-0.17,1.143-0.17,2.15s0.051,1.7,0.152,2.077
			s0.229,0.628,0.384,0.753s0.331,0.188,0.53,0.188s0.377-0.063,0.533-0.19s0.277-0.354,0.363-0.683
			c0.113-0.422,0.17-1.137,0.17-2.145s-0.051-1.7-0.152-2.077s-0.229-0.629-0.384-0.756S60.705,143.024,60.506,143.024z"/>
		<path fill="#C0C0C0" d="M67.18,141.659c0.832,0,1.482,0.297,1.951,0.891c0.559,0.703,0.838,1.869,0.838,3.498
			c0,1.625-0.281,2.793-0.844,3.504c-0.465,0.586-1.113,0.879-1.945,0.879c-0.836,0-1.51-0.321-2.021-0.964
			s-0.768-1.788-0.768-3.437c0-1.617,0.281-2.781,0.844-3.492C65.699,141.952,66.348,141.659,67.18,141.659z M67.18,143.024
			c-0.199,0-0.377,0.063-0.533,0.19s-0.277,0.354-0.363,0.683c-0.113,0.426-0.17,1.143-0.17,2.15s0.051,1.7,0.152,2.077
			s0.229,0.628,0.384,0.753s0.331,0.188,0.53,0.188s0.377-0.063,0.533-0.19s0.277-0.354,0.363-0.683
			c0.113-0.422,0.17-1.137,0.17-2.145s-0.051-1.7-0.152-2.077s-0.229-0.629-0.384-0.756S67.379,143.024,67.18,143.024z"/>
		<path fill="#C0C0C0" d="M74.299,150.284v-1.729h-3.516v-1.441l3.727-5.455h1.383v5.449h1.066v1.447h-1.066v1.729H74.299z
			 M74.299,147.108v-2.936l-1.975,2.936H74.299z"/>
		<path fill="#C0C0C0" d="M79.156,145.649c-0.426-0.18-0.735-0.427-0.929-0.741s-0.29-0.659-0.29-1.034
			c0-0.641,0.224-1.17,0.671-1.588s1.083-0.627,1.907-0.627c0.816,0,1.45,0.209,1.901,0.627s0.677,0.947,0.677,1.588
			c0,0.398-0.104,0.753-0.311,1.063s-0.498,0.548-0.873,0.712c0.477,0.191,0.839,0.471,1.087,0.838s0.372,0.791,0.372,1.271
			c0,0.793-0.253,1.438-0.759,1.934s-1.179,0.744-2.019,0.744c-0.781,0-1.432-0.205-1.951-0.615c-0.613-0.484-0.92-1.148-0.92-1.992
			c0-0.465,0.115-0.892,0.346-1.28S78.66,145.86,79.156,145.649z M79.344,147.67c0,0.453,0.116,0.807,0.349,1.061
			s0.522,0.381,0.87,0.381c0.34,0,0.621-0.122,0.844-0.366s0.334-0.597,0.334-1.058c0-0.402-0.113-0.726-0.34-0.97
			s-0.514-0.366-0.861-0.366c-0.402,0-0.702,0.139-0.899,0.416S79.344,147.346,79.344,147.67z M79.496,143.991
			c0,0.328,0.093,0.584,0.278,0.768s0.433,0.275,0.741,0.275c0.312,0,0.562-0.093,0.75-0.278s0.281-0.442,0.281-0.771
			c0-0.309-0.093-0.556-0.278-0.741s-0.431-0.278-0.735-0.278c-0.316,0-0.568,0.094-0.756,0.281S79.496,143.682,79.496,143.991z"/>
	</g>
	<g>
		<path fill="#C0C0C0" d="M37.758,176.584v-5.727h1.73l1.039,3.906l1.027-3.906h1.734v5.727h-1.074v-4.508l-1.137,4.508h-1.113
			l-1.133-4.508v4.508H37.758z"/>
		<path fill="#C0C0C0" d="M45.25,173.702l-0.996-0.18c0.112-0.401,0.305-0.698,0.578-0.891s0.68-0.289,1.219-0.289
			c0.49,0,0.854,0.058,1.094,0.174s0.408,0.263,0.506,0.441s0.146,0.506,0.146,0.982l-0.012,1.281c0,0.364,0.018,0.634,0.053,0.807
			s0.101,0.358,0.197,0.557H46.95c-0.029-0.073-0.064-0.181-0.105-0.324c-0.018-0.065-0.031-0.108-0.039-0.129
			c-0.188,0.183-0.388,0.319-0.602,0.41s-0.441,0.137-0.684,0.137c-0.427,0-0.764-0.116-1.01-0.348s-0.369-0.524-0.369-0.879
			c0-0.234,0.056-0.443,0.168-0.627s0.269-0.324,0.471-0.422s0.493-0.183,0.873-0.256c0.513-0.097,0.869-0.187,1.066-0.27v-0.109
			c0-0.211-0.052-0.361-0.156-0.451s-0.301-0.135-0.59-0.135c-0.195,0-0.348,0.038-0.457,0.115S45.318,173.509,45.25,173.702z
			 M46.719,174.592c-0.141,0.047-0.363,0.103-0.668,0.168s-0.504,0.129-0.598,0.191c-0.143,0.102-0.215,0.23-0.215,0.387
			c0,0.153,0.057,0.286,0.172,0.398s0.26,0.168,0.438,0.168c0.198,0,0.387-0.065,0.566-0.195c0.133-0.099,0.22-0.22,0.262-0.363
			c0.029-0.094,0.043-0.272,0.043-0.535V174.592z"/>
		<path fill="#C0C0C0" d="M52.684,176.584h-1.02v-0.609c-0.169,0.237-0.369,0.413-0.6,0.529s-0.463,0.174-0.697,0.174
			c-0.477,0-0.885-0.192-1.225-0.576s-0.51-0.92-0.51-1.607c0-0.703,0.166-1.237,0.496-1.604s0.749-0.549,1.254-0.549
			c0.463,0,0.865,0.192,1.203,0.578v-2.062h1.098V176.584z M49.754,174.42c0,0.442,0.061,0.763,0.184,0.961
			c0.177,0.286,0.424,0.43,0.742,0.43c0.252,0,0.467-0.107,0.645-0.322s0.266-0.536,0.266-0.963c0-0.477-0.086-0.819-0.258-1.029
			s-0.392-0.314-0.66-0.314c-0.26,0-0.479,0.104-0.654,0.311S49.754,174.009,49.754,174.42z"/>
		<path fill="#C0C0C0" d="M56.168,175.264l1.094,0.184c-0.141,0.401-0.363,0.706-0.666,0.916s-0.683,0.314-1.139,0.314
			c-0.721,0-1.255-0.235-1.602-0.707c-0.273-0.378-0.41-0.854-0.41-1.43c0-0.688,0.18-1.226,0.539-1.615s0.814-0.584,1.363-0.584
			c0.617,0,1.104,0.204,1.461,0.611s0.527,1.032,0.512,1.873h-2.75c0.008,0.325,0.096,0.579,0.266,0.76s0.38,0.271,0.633,0.271
			c0.172,0,0.316-0.047,0.434-0.141S56.108,175.472,56.168,175.264z M56.231,174.155c-0.008-0.317-0.09-0.56-0.246-0.725
			s-0.346-0.248-0.57-0.248c-0.24,0-0.438,0.087-0.594,0.262s-0.233,0.411-0.23,0.711H56.231z"/>
		<path fill="#C0C0C0" d="M60.438,171.874v-1.016h1.098v1.016H60.438z M60.438,176.584v-4.148h1.098v4.148H60.438z"/>
		<path fill="#C0C0C0" d="M66.434,176.584h-1.098v-2.117c0-0.448-0.023-0.737-0.07-0.869s-0.123-0.233-0.229-0.307
			s-0.232-0.109-0.381-0.109c-0.19,0-0.361,0.052-0.512,0.156s-0.254,0.242-0.311,0.414s-0.084,0.489-0.084,0.953v1.879h-1.098
			v-4.148h1.02v0.609c0.362-0.469,0.818-0.703,1.367-0.703c0.242,0,0.463,0.044,0.664,0.131s0.352,0.198,0.455,0.334
			s0.174,0.289,0.215,0.461s0.061,0.418,0.061,0.738V176.584z"/>
		<path fill="#C0C0C0" d="M73.442,174.479l1.121,0.355c-0.172,0.625-0.458,1.089-0.857,1.393s-0.907,0.455-1.521,0.455
			c-0.76,0-1.385-0.26-1.875-0.779s-0.734-1.229-0.734-2.131c0-0.953,0.246-1.693,0.738-2.221s1.139-0.791,1.941-0.791
			c0.701,0,1.27,0.207,1.707,0.621c0.26,0.245,0.456,0.597,0.586,1.055l-1.145,0.273c-0.068-0.297-0.209-0.531-0.424-0.703
			s-0.476-0.258-0.783-0.258c-0.424,0-0.769,0.152-1.033,0.457s-0.396,0.798-0.396,1.48c0,0.724,0.13,1.239,0.391,1.547
			s0.599,0.461,1.016,0.461c0.307,0,0.572-0.098,0.793-0.293S73.346,174.898,73.442,174.479z"/>
		<path fill="#C0C0C0" d="M76.641,170.858v2.105c0.354-0.414,0.777-0.621,1.27-0.621c0.252,0,0.48,0.047,0.684,0.141
			s0.356,0.214,0.459,0.359s0.173,0.308,0.211,0.484s0.057,0.452,0.057,0.824v2.434h-1.098v-2.191c0-0.435-0.021-0.711-0.062-0.828
			s-0.115-0.21-0.221-0.279s-0.238-0.104-0.396-0.104c-0.182,0-0.345,0.044-0.488,0.133s-0.248,0.222-0.314,0.4
			s-0.1,0.442-0.1,0.791v2.078h-1.098v-5.727H76.641z"/>
		<path fill="#C0C0C0" d="M80.434,171.874v-1.016h1.098v1.016H80.434z M80.434,176.584v-4.148h1.098v4.148H80.434z"/>
		<path fill="#C0C0C0" d="M86.43,176.584h-1.098v-2.117c0-0.448-0.023-0.737-0.07-0.869s-0.123-0.233-0.229-0.307
			s-0.232-0.109-0.381-0.109c-0.19,0-0.361,0.052-0.512,0.156s-0.254,0.242-0.311,0.414s-0.084,0.489-0.084,0.953v1.879h-1.098
			v-4.148h1.02v0.609c0.362-0.469,0.818-0.703,1.367-0.703c0.242,0,0.463,0.044,0.664,0.131s0.352,0.198,0.455,0.334
			s0.174,0.289,0.215,0.461s0.061,0.418,0.061,0.738V176.584z"/>
		<path fill="#C0C0C0" d="M88.364,173.702l-0.996-0.18c0.112-0.401,0.305-0.698,0.578-0.891s0.68-0.289,1.219-0.289
			c0.49,0,0.854,0.058,1.094,0.174s0.408,0.263,0.506,0.441s0.146,0.506,0.146,0.982l-0.012,1.281c0,0.364,0.018,0.634,0.053,0.807
			s0.101,0.358,0.197,0.557h-1.086c-0.029-0.073-0.064-0.181-0.105-0.324c-0.018-0.065-0.031-0.108-0.039-0.129
			c-0.188,0.183-0.388,0.319-0.602,0.41s-0.441,0.137-0.684,0.137c-0.427,0-0.764-0.116-1.01-0.348s-0.369-0.524-0.369-0.879
			c0-0.234,0.056-0.443,0.168-0.627s0.269-0.324,0.471-0.422s0.493-0.183,0.873-0.256c0.513-0.097,0.869-0.187,1.066-0.27v-0.109
			c0-0.211-0.052-0.361-0.156-0.451s-0.301-0.135-0.59-0.135c-0.195,0-0.348,0.038-0.457,0.115S88.432,173.509,88.364,173.702z
			 M89.833,174.592c-0.141,0.047-0.363,0.103-0.668,0.168s-0.504,0.129-0.598,0.191c-0.143,0.102-0.215,0.23-0.215,0.387
			c0,0.153,0.057,0.286,0.172,0.398s0.26,0.168,0.438,0.168c0.198,0,0.387-0.065,0.566-0.195c0.133-0.099,0.22-0.22,0.262-0.363
			c0.029-0.094,0.043-0.272,0.043-0.535V174.592z"/>
	</g>
	<g>
		<path fill="#C0C0C0" d="M121.013,144.919h-0.703v-4.48c-0.169,0.161-0.391,0.323-0.666,0.484s-0.521,0.282-0.74,0.363v-0.68
			c0.393-0.185,0.737-0.409,1.031-0.672s0.502-0.519,0.625-0.766h0.453V144.919z"/>
	</g>
	<g>
		<path fill="#C0C0C0" d="M197.981,144.387v-4.295h1.904c0.383,0,0.674,0.039,0.873,0.115c0.199,0.078,0.358,0.214,0.478,0.409
			s0.179,0.411,0.179,0.647c0,0.305-0.099,0.562-0.296,0.771s-0.502,0.342-0.914,0.398c0.15,0.072,0.265,0.144,0.343,0.214
			c0.166,0.152,0.323,0.343,0.472,0.571l0.747,1.169h-0.715l-0.568-0.894c-0.166-0.258-0.303-0.455-0.41-0.592
			s-0.204-0.232-0.288-0.287c-0.086-0.055-0.172-0.093-0.26-0.114c-0.064-0.014-0.17-0.021-0.316-0.021h-0.659v1.907H197.981z
			 M198.55,141.988h1.222c0.26,0,0.463-0.026,0.609-0.081c0.146-0.053,0.258-0.139,0.334-0.258c0.076-0.117,0.114-0.246,0.114-0.385
			c0-0.203-0.074-0.37-0.222-0.501s-0.38-0.196-0.698-0.196h-1.359V141.988z"/>
		<path fill="#C0C0C0" d="M202.042,142.832c0-0.576,0.16-1.003,0.48-1.28c0.268-0.23,0.594-0.346,0.979-0.346
			c0.428,0,0.777,0.141,1.049,0.42c0.271,0.281,0.407,0.668,0.407,1.162c0,0.4-0.06,0.716-0.181,0.945
			c-0.119,0.229-0.295,0.407-0.523,0.534c-0.23,0.127-0.48,0.19-0.752,0.19c-0.436,0-0.788-0.14-1.057-0.419
			S202.042,143.357,202.042,142.832z M202.584,142.832c0,0.398,0.087,0.697,0.261,0.896s0.393,0.297,0.656,0.297
			c0.262,0,0.479-0.1,0.653-0.299s0.261-0.503,0.261-0.911c0-0.385-0.088-0.676-0.262-0.874c-0.176-0.198-0.393-0.298-0.652-0.298
			c-0.264,0-0.482,0.099-0.656,0.296S202.584,142.433,202.584,142.832z"/>
		<path fill="#C0C0C0" d="M205.66,144.387v-4.295h0.568v1.764h2.232v-1.764h0.568v4.295h-0.568v-2.024h-2.232v2.024H205.66z"/>
		<path fill="#C0C0C0" d="M209.782,143.007l0.536-0.047c0.025,0.215,0.084,0.392,0.177,0.528c0.093,0.139,0.237,0.25,0.433,0.334
			c0.195,0.086,0.415,0.128,0.659,0.128c0.217,0,0.408-0.032,0.574-0.097s0.289-0.152,0.371-0.266
			c0.08-0.111,0.121-0.234,0.121-0.367c0-0.135-0.039-0.252-0.117-0.354c-0.078-0.1-0.207-0.185-0.387-0.253
			c-0.115-0.045-0.37-0.114-0.765-0.21c-0.395-0.094-0.671-0.184-0.829-0.268c-0.205-0.107-0.358-0.24-0.459-0.4
			c-0.101-0.158-0.15-0.337-0.15-0.534c0-0.217,0.062-0.419,0.185-0.608c0.123-0.188,0.303-0.331,0.539-0.429
			s0.499-0.146,0.788-0.146c0.318,0,0.6,0.052,0.842,0.153c0.244,0.104,0.431,0.254,0.562,0.453s0.201,0.425,0.211,0.677
			l-0.545,0.041c-0.029-0.271-0.129-0.477-0.298-0.615s-0.418-0.208-0.748-0.208c-0.344,0-0.595,0.062-0.752,0.189
			c-0.157,0.125-0.235,0.277-0.235,0.455c0,0.154,0.056,0.281,0.167,0.381c0.109,0.1,0.395,0.202,0.857,0.307
			c0.461,0.104,0.778,0.195,0.95,0.273c0.25,0.115,0.435,0.262,0.554,0.438c0.119,0.178,0.179,0.381,0.179,0.611
			c0,0.229-0.065,0.443-0.196,0.646c-0.131,0.201-0.319,0.359-0.564,0.471c-0.245,0.112-0.521,0.169-0.827,0.169
			c-0.389,0-0.715-0.057-0.978-0.17s-0.469-0.283-0.617-0.511C209.868,143.552,209.79,143.294,209.782,143.007z"/>
	</g>
	<g>
		<rect x="37.191" y="154.551" fill="none" width="79.333" height="13.289"/>
		<path fill="#C0C0C0" d="M37.515,157.63c0-1.463,0.948-2.32,2.129-2.32c0.642,0,1.085,0.275,1.373,0.569l-0.474,0.564
			c-0.216-0.21-0.468-0.372-0.87-0.372c-0.737,0-1.253,0.575-1.253,1.529c0,0.965,0.443,1.547,1.313,1.547
			c0.216,0,0.432-0.06,0.558-0.168v-0.875h-0.785v-0.727h1.577v2.003c-0.3,0.294-0.822,0.534-1.439,0.534
			C38.433,159.916,37.515,159.112,37.515,157.63z"/>
		<path fill="#C0C0C0" d="M42.039,155.394h1.469c0.912,0,1.607,0.264,1.607,1.092c0,0.407-0.228,0.827-0.606,0.959v0.03
			c0.48,0.113,0.834,0.449,0.834,1.049c0,0.894-0.744,1.308-1.721,1.308h-1.583V155.394z M43.442,157.199
			c0.564,0,0.81-0.228,0.81-0.581c0-0.391-0.264-0.546-0.797-0.546h-0.528v1.127H43.442z M43.544,159.148
			c0.606,0,0.936-0.216,0.936-0.678c0-0.432-0.324-0.611-0.936-0.611h-0.618v1.289H43.544z"/>
		<path fill="#C0C0C0" d="M51.522,157.745c-0.18,0.456-0.426,0.846-0.72,1.163c0.684,0.288,1.313,0.588,1.757,0.857l-0.582,0.606
			c-0.426-0.282-1.073-0.618-1.781-0.936c-0.654,0.449-1.475,0.731-2.447,0.917c-0.078-0.174-0.288-0.504-0.426-0.659
			c0.828-0.114,1.523-0.3,2.081-0.594c-0.486-0.198-0.978-0.384-1.427-0.528l0.012-0.012c0.18-0.233,0.372-0.516,0.558-0.815h-1.241
			v-0.672h1.625c0.156-0.3,0.3-0.605,0.408-0.881l0.797,0.155c-0.096,0.24-0.21,0.48-0.336,0.726h2.789v0.672H51.522z
			 M48.146,156.737h-0.726V155.4h2.086c-0.072-0.168-0.156-0.342-0.228-0.491l0.75-0.175c0.114,0.204,0.24,0.462,0.33,0.666h2.117
			v1.337h-0.762v-0.677h-3.568V156.737z M49.436,157.745c-0.114,0.186-0.222,0.36-0.33,0.516c0.324,0.114,0.647,0.234,0.983,0.36
			c0.251-0.246,0.456-0.534,0.605-0.876H49.436z"/>
		<path fill="#C0C0C0" d="M56.311,157.541v0.689h1.427v0.624h-1.427v0.72h2.195v0.642h-5.097v-0.642h2.153v-0.72h-1.367v-0.624
			h1.367v-0.689H54.11v-0.401c-0.186,0.107-0.378,0.21-0.576,0.306c-0.096-0.186-0.306-0.426-0.486-0.594
			c1.073-0.443,2.165-1.224,2.765-2.152l0.636,0.294c-0.036,0.054-0.072,0.107-0.108,0.161c0.714,0.762,1.542,1.29,2.501,1.709
			c-0.18,0.162-0.39,0.402-0.48,0.612c-0.198-0.108-0.396-0.216-0.576-0.318v0.384H56.311z M57.402,156.912
			c-0.527-0.349-1.007-0.75-1.469-1.248c-0.432,0.474-0.929,0.899-1.457,1.248H57.402z"/>
		<path fill="#C0C0C0" d="M61.106,158.23c-0.084-0.18-0.246-0.455-0.408-0.713v2.83H59.99v-2.429
			c-0.162,0.486-0.354,0.936-0.569,1.247c-0.078-0.197-0.252-0.51-0.36-0.701c0.33-0.426,0.635-1.205,0.792-1.871h-0.696v-0.659
			h0.833v-1.182h0.708v1.182h0.702v0.659h-0.702v0.126c0.186,0.192,0.684,0.804,0.792,0.947L61.106,158.23z M62.371,157.907
			c-0.168,0.701-0.474,1.433-0.773,1.9c-0.132-0.102-0.408-0.287-0.564-0.365c0.306-0.414,0.558-1.062,0.696-1.673L62.371,157.907z
			 M63.367,157.217v2.297c0,0.354-0.054,0.551-0.276,0.671c-0.216,0.12-0.51,0.132-0.917,0.132c-0.018-0.21-0.108-0.521-0.204-0.731
			c0.24,0.013,0.492,0.006,0.57,0.006c0.078,0,0.102-0.018,0.102-0.096v-2.278h-1.169v-0.666h3.232v0.666H63.367z M64.374,155.79
			h-2.633v-0.665h2.633V155.79z M64.158,157.739c0.27,0.605,0.534,1.367,0.611,1.865l-0.642,0.239
			c-0.066-0.497-0.306-1.289-0.558-1.906L64.158,157.739z"/>
		<path fill="#C0C0C0" d="M67.118,158.344c0.06,0.204,0.192,0.486,0.282,0.624c-1.133,0.965-1.331,1.133-1.445,1.283
			c-0.078-0.138-0.312-0.366-0.426-0.462c0.144-0.132,0.366-0.42,0.366-0.785v-1.728h-0.702v-0.684h1.397v2.195L67.118,158.344z
			 M66.386,156.24c-0.192-0.264-0.624-0.672-0.941-0.96l0.456-0.438c0.33,0.27,0.768,0.647,0.978,0.905L66.386,156.24z
			 M68.629,158.626c-0.21,0.665-0.576,1.313-0.972,1.721c-0.138-0.114-0.45-0.317-0.629-0.407c0.39-0.354,0.696-0.912,0.863-1.476
			L68.629,158.626z M70.374,157.979H67.52v-2.843h2.854V157.979z M69.625,155.814h-1.392v1.481h1.392V155.814z M69.9,158.434
			c0.33,0.504,0.677,1.176,0.81,1.613l-0.72,0.276c-0.114-0.433-0.432-1.128-0.75-1.655L69.9,158.434z"/>
		<path fill="#C0C0C0" d="M72.05,157.139c0,0.144,0,0.306-0.006,0.474h1.073v2.746h-0.612v-2.146h-0.485
			c-0.042,0.743-0.144,1.541-0.36,2.153c-0.144-0.066-0.432-0.162-0.6-0.204c0.33-0.864,0.377-2.189,0.377-3.022v-2.23h0.612v1.421
			h0.33v-1.571h0.594v1.571h0.336v0.605H72.05V157.139z M76.722,159.238h-1.013v1.115h-0.684v-1.115H73.28v-0.617h0.569
			c-0.114-0.108-0.288-0.229-0.401-0.307c0.324-0.186,0.563-0.396,0.743-0.617h-0.684v-2.423h0.882
			c0.042-0.18,0.078-0.359,0.096-0.516l0.84,0.066c-0.066,0.149-0.138,0.306-0.204,0.449H76.5v2.423h-1.529
			c-0.186,0.33-0.45,0.653-0.839,0.924h0.894v-0.792h0.684v0.792h1.019L76.722,159.238z M74.155,156.221h0.527v-0.077v-0.312h-0.527
			V156.221z M74.509,157.139c0.054-0.138,0.09-0.27,0.12-0.402h-0.474v0.402H74.509z M75.816,156.737h-0.528
			c-0.018,0.133-0.048,0.265-0.09,0.402h0.618V156.737z M75.816,155.832h-0.486v0.33v0.06h0.486V155.832z"/>
		<path fill="#C0C0C0" d="M38.511,163.715c-0.216,0.288-0.462,0.546-0.72,0.72c-0.096-0.144-0.282-0.372-0.426-0.485
			c0.348-0.192,0.702-0.54,0.954-0.899h-0.72v-0.576h0.912v-0.521h0.66v0.521h0.762v0.576H39.17v0.006
			c0.24,0.132,0.75,0.449,0.894,0.546l-0.372,0.479c-0.114-0.114-0.324-0.282-0.521-0.438v0.779h-0.66V163.715z M39.165,166.384
			c-0.294,0.426-0.774,0.852-1.193,1.104c-0.132-0.12-0.402-0.336-0.558-0.438c0.42-0.21,0.84-0.539,1.08-0.875L39.165,166.384z
			 M37.563,165.466h5.271v0.6h-2.267v0.81c0,0.336-0.072,0.492-0.33,0.588c-0.246,0.09-0.576,0.096-1.014,0.096
			c-0.042-0.191-0.15-0.443-0.24-0.617c0.3,0.018,0.647,0.018,0.738,0.012c0.096-0.006,0.126-0.023,0.126-0.096v-0.792h-2.285
			V165.466z M38.217,164.591h4.018v0.575h-4.018V164.591z M41.959,163.05c0.282,0.342,0.689,0.695,1.043,0.887
			c-0.144,0.114-0.342,0.336-0.444,0.486c-0.246-0.174-0.51-0.45-0.75-0.744v0.744h-0.672v-0.773
			c-0.24,0.306-0.521,0.581-0.81,0.762c-0.096-0.145-0.288-0.366-0.42-0.48c0.372-0.186,0.762-0.527,1.02-0.881h-0.786v-0.576h0.996
			v-0.521h0.672v0.521h0.983v0.576H41.959z M41.623,166.15c0.402,0.258,0.929,0.66,1.193,0.941l-0.612,0.372
			c-0.228-0.27-0.737-0.695-1.151-0.978L41.623,166.15z"/>
		<path fill="#C0C0C0" d="M48.924,166.54v0.714h-5.475v-0.714h0.762v-3.357h0.75v3.357h1.091v-4.587h0.762v1.871h1.787v0.72h-1.787
			v1.996H48.924z"/>
		<path fill="#C0C0C0" d="M50.667,165.292v1.47c0,0.312-0.048,0.485-0.222,0.594c-0.168,0.107-0.402,0.132-0.738,0.132
			c-0.012-0.181-0.096-0.456-0.174-0.636c0.162,0.006,0.33,0.006,0.384,0.006c0.066,0,0.084-0.024,0.084-0.09v-1.235
			c-0.168,0.048-0.324,0.102-0.48,0.156l-0.167-0.678c0.186-0.049,0.401-0.114,0.647-0.192v-1.073h-0.57v-0.66h0.57v-1.127h0.666
			v1.127h0.456v0.66h-0.456v0.863l0.42-0.126l0.108,0.624L50.667,165.292z M54.996,166.923v0.546h-4.054v-0.546H54.996z
			 M54.93,162.948h-3.844v-0.552h1.511c-0.036-0.12-0.09-0.239-0.138-0.336l0.69-0.144c0.084,0.144,0.168,0.317,0.216,0.479h1.565
			V162.948z M54.744,165.046h-3.382v-1.942h3.382V165.046z M51.53,166.75v-1.511h2.962v1.511H51.53z M54.109,163.505h-2.147v1.134
			h2.147V163.505z M52.19,165.814h1.607v-0.203H52.19V165.814z M52.19,166.378h1.607v-0.21H52.19V166.378z M53.857,164.477h-1.661
			v-0.798h1.661V164.477z M53.377,163.979h-0.731v0.198h0.731V163.979z"/>
		<path fill="#C0C0C0" d="M57.266,161.989c1.907,1.397,1.847,3.478,3.772,4.695c-0.114,0.197-0.306,0.6-0.342,0.821
			c-1.229-0.689-1.745-1.919-2.356-3.04c-0.468,1.373-1.211,2.387-2.291,3.022c-0.132-0.15-0.461-0.444-0.653-0.582
			c1.277-0.63,2.015-1.787,2.362-3.382c-0.251-0.354-0.558-0.666-0.929-0.918L57.266,161.989z"/>
		<path fill="#C0C0C0" d="M66.085,165.011c-0.27,0.587-0.666,1.043-1.151,1.396c0.575,0.204,1.247,0.342,1.985,0.408
			c-0.15,0.162-0.342,0.474-0.438,0.666c-0.87-0.108-1.643-0.312-2.291-0.63c-0.69,0.33-1.487,0.527-2.333,0.642
			c-0.072-0.168-0.27-0.486-0.419-0.63c0.75-0.078,1.445-0.216,2.039-0.438c-0.366-0.258-0.684-0.576-0.947-0.941l0.198-0.084
			h-0.282v-0.654h3.028l0.132-0.029L66.085,165.011z M62.247,164.969h-0.666v-1.302h0.857c-0.06-0.186-0.174-0.426-0.282-0.617
			l0.534-0.15c-0.3,0.019-0.605,0.03-0.894,0.036c-0.012-0.18-0.096-0.45-0.162-0.605c1.577-0.055,3.382-0.198,4.474-0.408
			l0.479,0.576c-0.647,0.12-1.421,0.216-2.219,0.287c0.12,0.24,0.234,0.559,0.27,0.774l-0.444,0.107h1.043
			c0.144-0.275,0.3-0.63,0.39-0.899l0.762,0.18c-0.138,0.252-0.294,0.498-0.432,0.72h0.852v1.302h-0.696v-0.684h-3.868V164.969z
			 M64.328,162.786c-0.504,0.049-1.025,0.084-1.535,0.108c0.138,0.222,0.276,0.492,0.336,0.684l-0.312,0.09h1.146
			c-0.036-0.21-0.126-0.51-0.228-0.743L64.328,162.786z M63.284,165.401c0.246,0.27,0.552,0.497,0.912,0.695
			c0.318-0.191,0.6-0.42,0.815-0.695H63.284z"/>
		<path fill="#C0C0C0" d="M69.656,162.426c-0.156,0.504-0.354,1.109-0.516,1.571c0.36,0.468,0.432,0.894,0.432,1.247
			c0,0.384-0.078,0.642-0.27,0.786c-0.09,0.071-0.204,0.107-0.336,0.132c-0.108,0.018-0.252,0.018-0.39,0.012
			c0-0.174-0.06-0.438-0.156-0.611c0.102,0.006,0.192,0.012,0.258,0.006c0.06,0,0.12-0.013,0.162-0.048
			c0.072-0.055,0.108-0.187,0.108-0.354c0-0.294-0.078-0.678-0.419-1.097c0.114-0.366,0.246-0.852,0.342-1.248h-0.582v4.72h-0.624
			v-5.355h1.427l0.096-0.029L69.656,162.426z M72.888,165.508c-0.258,0.204-0.57,0.432-0.839,0.605
			c0.252,0.343,0.576,0.624,0.971,0.804c-0.156,0.139-0.372,0.42-0.474,0.618c-0.894-0.492-1.373-1.415-1.655-2.591h-0.36v1.686
			l0.833-0.187c-0.006,0.204,0.006,0.498,0.03,0.647c-1.169,0.3-1.391,0.391-1.535,0.48c-0.054-0.156-0.204-0.438-0.306-0.558
			c0.126-0.078,0.276-0.24,0.276-0.522v-4.299h2.71v2.752h-1.038c0.066,0.234,0.144,0.45,0.24,0.653
			c0.246-0.186,0.51-0.407,0.684-0.594L72.888,165.508z M70.532,162.804v0.468h1.319v-0.468H70.532z M70.532,164.328h1.319v-0.48
			h-1.319V164.328z"/>
		<path fill="#C0C0C0" d="M78.811,162.63v1.349h-0.738v-0.701h-3.796v0.815h-0.702v-1.463h2.243
			c-0.066-0.18-0.144-0.366-0.216-0.521l0.762-0.21c0.108,0.228,0.246,0.503,0.33,0.731H78.811z M76.55,166.708h2.236v0.648h-5.163
			v-0.648h2.165v-1.175h-1.439v-0.605c-0.114,0.054-0.222,0.102-0.33,0.149l-0.402-0.647c0.66-0.204,1.319-0.534,1.841-0.918
			l0.492,0.438c-0.426,0.342-0.989,0.684-1.535,0.947h3.658v0.636H76.55V166.708z M78.294,164.993
			c-0.414-0.27-1.265-0.714-1.859-0.995l0.45-0.492c0.564,0.252,1.445,0.66,1.889,0.918L78.294,164.993z"/>
		<path fill="#C0C0C0" d="M79.629,163.392h0.743v4.155h-0.743V163.392z M80.277,161.989c0.282,0.264,0.605,0.636,0.744,0.905
			l-0.6,0.384c-0.126-0.258-0.432-0.659-0.702-0.941L80.277,161.989z M80.979,163.631h2.458v2.854h-2.458V163.631z M84.804,166.78
			c0,0.336-0.06,0.498-0.258,0.611c-0.198,0.108-0.486,0.12-0.857,0.12c-0.03-0.186-0.12-0.462-0.204-0.636
			c0.192,0.013,0.408,0.006,0.48,0.006c0.078,0,0.096-0.029,0.096-0.107v-3.862h-2.83v-0.665h3.574V166.78z M81.614,164.765h1.157
			v-0.563h-1.157V164.765z M81.614,165.911h1.157v-0.57h-1.157V165.911z"/>
	</g>
	<g>
		<g>
			<path fill-rule="evenodd" clip-rule="evenodd" fill="#C0C0C0" d="M200.597,163.182l-0.912,1.52
				c-0.389,0.65-0.088,1.182,0.67,1.18h5.742v1.742h-4.232h-1.744c-2.189,0.008-3.012-1.715-1.936-3.652
				c0.295-0.525,0.912-1.594,0.912-1.594l-0.461-0.248l1.047-0.537l1.049-0.539l0.133,1.172l0.131,1.17L200.597,163.182
				L200.597,163.182z"/>
			<path fill-rule="evenodd" clip-rule="evenodd" fill="#C0C0C0" d="M207.038,157.538l-0.859-1.549
				c-0.369-0.662-0.979-0.668-1.355-0.01l-2.871,4.973l-1.51-0.871l2.117-3.666l0.871-1.512c1.088-1.898,2.992-1.75,4.131,0.15
				c0.309,0.518,0.924,1.588,0.924,1.588l0.445-0.277l-0.057,1.178l-0.059,1.176l-1.08-0.471l-1.08-0.471l0.385-0.238H207.038z"/>
			<path fill-rule="evenodd" clip-rule="evenodd" fill="#C0C0C0" d="M208.786,165.836l1.771,0.029
				c0.758,0.012,1.066-0.514,0.686-1.17l-2.871-4.973l1.51-0.871l2.117,3.666l0.871,1.51c1.102,1.893,0.02,3.467-2.195,3.502
				c-0.602,0.01-1.836,0.008-1.836,0.008l0.016,0.523l-0.988-0.639l-0.99-0.639l0.947-0.699l0.947-0.699L208.786,165.836
				L208.786,165.836z"/>
		</g>
		<polygon fill="#C0C0C0" points="205.05,163.458 203.122,162.145 202.69,162.84 202.69,162.84 205.021,165.299 208.329,160.807 
			208.003,160.227 		"/>
	</g>
	<g>
		<rect x="115.774" y="153.551" fill="#C0C0C0" width="1.486" height="28.346"/>
		<rect x="118.004" y="153.551" fill="#C0C0C0" width="0.743" height="28.346"/>
		<rect x="120.233" y="153.551" fill="#C0C0C0" width="2.229" height="28.346"/>
		<rect x="123.948" y="153.551" fill="#C0C0C0" width="1.486" height="28.346"/>
		<rect x="127.664" y="153.551" fill="#C0C0C0" width="0.743" height="28.346"/>
		<rect x="129.893" y="153.551" fill="#C0C0C0" width="0.743" height="28.346"/>
		<rect x="132.122" y="153.551" fill="#C0C0C0" width="1.486" height="28.346"/>
		<rect x="135.095" y="153.551" fill="#C0C0C0" width="0.743" height="28.346"/>
		<rect x="137.323" y="153.551" fill="#C0C0C0" width="2.229" height="28.346"/>
		<rect x="140.296" y="153.551" fill="#C0C0C0" width="0.743" height="28.346"/>
		<rect x="142.525" y="153.551" fill="#C0C0C0" width="0.743" height="28.346"/>
		<rect x="145.497" y="153.551" fill="#C0C0C0" width="1.486" height="28.346"/>
		<rect x="148.47" y="153.551" fill="#C0C0C0" width="0.743" height="28.346"/>
		<rect x="149.956" y="153.551" fill="#C0C0C0" width="2.973" height="28.346"/>
		<rect x="153.671" y="153.551" fill="#C0C0C0" width="2.229" height="28.346"/>
		<rect x="156.644" y="153.551" fill="#C0C0C0" width="2.229" height="28.346"/>
		<rect x="159.616" y="153.551" fill="#C0C0C0" width="0.743" height="28.346"/>
		<rect x="161.845" y="153.551" fill="#C0C0C0" width="1.486" height="28.346"/>
		<rect x="164.817" y="153.551" fill="#C0C0C0" width="0.743" height="28.346"/>
		<rect x="166.304" y="153.551" fill="#C0C0C0" width="1.486" height="28.346"/>
		<rect x="170.762" y="153.551" fill="#C0C0C0" width="0.743" height="28.346"/>
		<rect x="172.991" y="153.551" fill="#C0C0C0" width="1.486" height="28.346"/>
		<rect x="176.707" y="153.551" fill="#C0C0C0" width="2.229" height="28.346"/>
		<rect x="179.679" y="153.551" fill="#C0C0C0" width="0.743" height="28.346"/>
		<rect x="181.165" y="153.551" fill="#C0C0C0" width="1.486" height="28.346"/>
	</g>
</g>
<g id="Layer_3">
	
		<rect x="37.191" y="138.135" fill="none" stroke="#EC671C" stroke-width="0.2" stroke-miterlimit="10" width="72.809" height="43.762"/>
	
		<rect x="115.774" y="138.135" fill="none" stroke="#EC671C" stroke-width="0.2" stroke-miterlimit="10" width="75.926" height="43.762"/>
	
		<rect x="196.237" y="138.135" fill="none" stroke="#EC671C" stroke-width="0.2" stroke-miterlimit="10" width="28.763" height="43.762"/>
	
		<rect x="24.819" y="44.756" fill="none" stroke="#EC671C" stroke-width="0.2" stroke-miterlimit="10" width="212.599" height="155.905"/>
</g>
</svg>
